<svg id="Layer_1" data-name="Layer 1" xmlns="http://www.w3.org/2000/svg" viewBox="0 0 366.48 492.9"><defs><style>.cls-1{fill:#333;}</style></defs><path class="cls-1" d="M468.93,513.32a7.88,7.88,0,0,0-11.41,0c-5.29,5.29-15.07,5.29-20.36,0a30.52,30.52,0,0,0-28.11-8.15,33.5,33.5,0,0,0-15.48,8.15,10.53,10.53,0,0,1-5.29,3.26,12.44,12.44,0,0,1-7.74.4l-3.67-1.22c30.55-27.29,48.07-66.8,49.7-109.17L296.21,359.34v110.8a8.15,8.15,0,1,1-16.29,0V359.34L149.57,406.59c1.63,42.37,19.14,81.88,49.29,109.58h0a38.35,38.35,0,0,1-3.67,1.22,16.54,16.54,0,0,1-7.74-.41,23.1,23.1,0,0,1-5.29-3.25,25.07,25.07,0,0,0-15.48-8.15h0a31.35,31.35,0,0,0-6.11-.82,30.49,30.49,0,0,0-21.59,9c-5.3,5.29-15.07,5.29-20.37,0a8.06,8.06,0,0,0-11.41,11.4,30.49,30.49,0,0,0,43.18,0c5.3-5.29,15.08-5.29,20.37,0a30.33,30.33,0,0,0,26.48,8.56h1.63A29.05,29.05,0,0,0,213.11,526l.41-.41c5.3-5.3,15.07-5.3,20.37,0l.41.41a30.51,30.51,0,0,0,42.36,0l.41-.41a14.27,14.27,0,0,1,20.37,0l.4.41a30.52,30.52,0,0,0,42.37,0l.41-.41a14.26,14.26,0,0,1,20.36,0l.41.41a29,29,0,0,0,14.26,7.74h2.44a18.6,18.6,0,0,0,4.48.4,30.52,30.52,0,0,0,21.59-9,14.27,14.27,0,0,1,20.37,0,30.49,30.49,0,0,0,43.18,0C472.19,521.46,472.19,516.58,468.93,513.32Z" transform="translate(-104.76 -41.6)"/><path class="cls-1" d="M287.64,124.5h0a66.87,66.87,0,0,0-47.28,114.16,66.38,66.38,0,0,1,18,33H317a66.36,66.36,0,0,1,18-33A66.87,66.87,0,0,0,287.64,124.5Zm-18.91,85.79-14.19,14.19a46.82,46.82,0,0,1,0-66.21l14.19,14.19A26.73,26.73,0,0,0,268.73,210.29Z" transform="translate(-104.76 -41.6)"/><path class="cls-1" d="M373.61,282.76H202.52a8.16,8.16,0,0,0-8.14,8.14v82.29l72.31-26.27a27.58,27.58,0,0,1-6.76-18.12V309.69h55.4V328.8a27.6,27.6,0,0,1-6.55,17.88l73,26.51V290.9A8.17,8.17,0,0,0,373.61,282.76Z" transform="translate(-104.76 -41.6)"/><path class="cls-1" d="M302.31,319.7h-28.8v11.76c0,9.41,6.44,17,14.4,17s14.4-7.63,14.4-17V319.7Z" transform="translate(-104.76 -41.6)"/><rect class="cls-1" x="252" y="74" width="72" height="7.2" rx="3.6" transform="translate(260.84 -252) rotate(90)"/><rect class="cls-1" x="172.31" y="100.89" width="72" height="7.2" rx="3.6" transform="translate(30.14 -158.3) rotate(45)"/><rect class="cls-1" x="328.31" y="100.89" width="72" height="7.2" rx="3.6" transform="translate(591.05 -120.84) rotate(135)"/></svg>