<svg id="Layer_1" data-name="Layer 1" xmlns="http://www.w3.org/2000/svg" viewBox="0 0 421 121"><defs><style>.cls-1{fill:none;stroke:#fff;stroke-miterlimit:10;stroke-width:6px;}.cls-2{fill:#fff;}</style></defs><rect class="cls-1" x="3" y="3" width="415" height="115"/><path class="cls-2" d="M66.32,54.8a4.73,4.73,0,0,1,0-6.91L63.61,45.3a8.29,8.29,0,0,0,0,12.09Z" transform="translate(-9.5 -9.5)"/><path class="cls-2" d="M20,20V120H120V20ZM79.71,39.2l8.76-8.37a.72.72,0,0,1,1,0,.64.64,0,0,1,0,.93l-8.75,8.37a.71.71,0,0,1-1,0A.65.65,0,0,1,79.71,39.2ZM64.64,73v3.49a4.93,4.93,0,0,0,1.29,3.31l-13.81,4.8v-15A1.53,1.53,0,0,1,53.67,68H86.35a1.53,1.53,0,0,1,1.56,1.49v15L74,79.71a4.93,4.93,0,0,0,1.25-3.27V73Zm8.09,1.83v2.15a2.77,2.77,0,1,1-5.5,0V74.78ZM69.31,24.67A.67.67,0,0,1,70,24h0a.67.67,0,0,1,.67.67v11.8a.68.68,0,0,1-.67.68h0a.68.68,0,0,1-.67-.68Zm.62,14.47h0c7,0,12.77,5.46,12.77,12.21A11.91,11.91,0,0,1,79,60a12,12,0,0,0-3.43,6H64.33a12,12,0,0,0-3.43-6,11.91,11.91,0,0,1-3.74-8.63C57.16,44.6,62.88,39.14,69.93,39.14Zm-20-8.31a.72.72,0,0,1,1,0l8.75,8.37a.64.64,0,0,1,0,.93.7.7,0,0,1-1,0l-8.75-8.37A.64.64,0,0,1,49.92,30.83Zm54.41,81.46a6,6,0,0,1-8.25,0,2.82,2.82,0,0,0-3.89,0,6,6,0,0,1-4.13,1.64,3.36,3.36,0,0,1-.85-.08h-.47A5.62,5.62,0,0,1,84,112.44l-.08-.08a2.82,2.82,0,0,0-3.89,0l-.08.08a6,6,0,0,1-8.09,0l-.08-.08a2.82,2.82,0,0,0-3.89,0l-.08.08a6,6,0,0,1-8.09,0l-.08-.08a3,3,0,0,0-3.89,0l-.07.08A5.65,5.65,0,0,1,53,113.85h-.31a6,6,0,0,1-5.06-1.56,3,3,0,0,0-3.89,0,6,6,0,0,1-8.24,0,1.38,1.38,0,0,1,0-2.08,1.55,1.55,0,0,1,2.18,0,3,3,0,0,0,3.89,0,5.94,5.94,0,0,1,4.12-1.64,5.86,5.86,0,0,1,1.17.15,4.85,4.85,0,0,1,3,1.49,4.78,4.78,0,0,0,1,.59,3.38,3.38,0,0,0,1.48.08,7.21,7.21,0,0,0,.7-.23,28,28,0,0,1-9.41-20L68.46,82v20.23a1.56,1.56,0,0,0,3.11,0V82l24.9,8.62A27.47,27.47,0,0,1,87,110.58l.7.22a2.46,2.46,0,0,0,1.48-.07,2,2,0,0,0,1-.6,6.65,6.65,0,0,1,3-1.49,6,6,0,0,1,5.37,1.49,3,3,0,0,0,3.89,0,1.56,1.56,0,0,1,2.18,0A1.35,1.35,0,0,1,104.33,112.29Z" transform="translate(-9.5 -9.5)"/><path class="cls-2" d="M338.58,88.34a1,1,0,0,0-.86.4,1.76,1.76,0,0,0-.32,1.12,1.79,1.79,0,0,0,.32,1.13,1.13,1.13,0,0,0,1.71,0,1.79,1.79,0,0,0,.31-1.13,1.76,1.76,0,0,0-.31-1.12A1,1,0,0,0,338.58,88.34Z" transform="translate(-9.5 -9.5)"/><path class="cls-2" d="M343.36,89.49a.63.63,0,0,0-.63.43,1.64,1.64,0,0,0-.09.58,1,1,0,0,0,.3.79.75.75,0,0,0,.42.13.63.63,0,0,0,.54-.27,1.28,1.28,0,0,0,.18-.72,1.26,1.26,0,0,0-.17-.65A.6.6,0,0,0,343.36,89.49Z" transform="translate(-9.5 -9.5)"/><path class="cls-2" d="M377.85,88.46H377v1.27h.82a.68.68,0,0,0,.48-.16.63.63,0,0,0,.17-.49.62.62,0,0,0-.17-.48A.78.78,0,0,0,377.85,88.46Z" transform="translate(-9.5 -9.5)"/><path class="cls-2" d="M347.46,89.44a.68.68,0,0,0-.5.18.86.86,0,0,0-.22.49h1.44a.71.71,0,0,0-.22-.5A.72.72,0,0,0,347.46,89.44Z" transform="translate(-9.5 -9.5)"/><path class="cls-2" d="M368.24,89.44a.68.68,0,0,0-.5.18.86.86,0,0,0-.22.49H369a.71.71,0,0,0-.22-.5A.72.72,0,0,0,368.24,89.44Z" transform="translate(-9.5 -9.5)"/><path class="cls-2" d="M361.77,90.61l-.19,0a1.45,1.45,0,0,0-.39.11.4.4,0,0,0-.2.36.35.35,0,0,0,.12.3.45.45,0,0,0,.3.1.83.83,0,0,0,.5-.16.64.64,0,0,0,.24-.58v-.31a.6.6,0,0,1-.16.08A1,1,0,0,1,361.77,90.61Z" transform="translate(-9.5 -9.5)"/><path class="cls-2" d="M350,64.34c-2.62,0-3.8,2.32-3.8,5.81S347.4,76,350,76s3.79-2.32,3.79-5.85S352.65,64.34,350,64.34Z" transform="translate(-9.5 -9.5)"/><path class="cls-2" d="M325.48,64.34c-2.24,0-3.88,1.75-3.88,5.81,0,4.52,1.75,6.08,3.8,6.08s3.84-1.78,3.84-6.08S327.42,64.34,325.48,64.34Z" transform="translate(-9.5 -9.5)"/><path class="cls-2" d="M267.3,64c-2.13,0-3.53,1.52-3.8,3.95H271C270.87,65.48,269.43,64,267.3,64Z" transform="translate(-9.5 -9.5)"/><path class="cls-2" d="M158.47,64.34c-2.24,0-3.88,1.75-3.88,5.81,0,4.52,1.75,6.08,3.8,6.08s3.84-1.78,3.84-6.08S160.41,64.34,158.47,64.34Z" transform="translate(-9.5 -9.5)"/><path class="cls-2" d="M195.18,64.07c-2.55,0-3.84,2.43-3.84,5.85s1.29,5.86,3.84,5.86,3.8-2.4,3.8-5.86S197.72,64.07,195.18,64.07Z" transform="translate(-9.5 -9.5)"/><path class="cls-2" d="M287.21,74.29a2.21,2.21,0,0,0,2.47,2.21c2.59,0,3.95-2,3.95-4.41v-.34h-2.24C289.64,71.75,287.21,72.05,287.21,74.29Z" transform="translate(-9.5 -9.5)"/><polygon class="cls-2" points="316.88 80.89 317.98 80.89 317.44 79.19 316.88 80.89"/><path class="cls-2" d="M242.26,64.34c-2.62,0-3.88,2.43-3.88,6s1.22,5.93,3.84,5.93,3.8-2.43,3.8-6S244.88,64.34,242.26,64.34Z" transform="translate(-9.5 -9.5)"/><path class="cls-2" d="M389.22,89.49a.58.58,0,0,0-.54.27,1.36,1.36,0,0,0-.17.69,1.33,1.33,0,0,0,.17.71.6.6,0,0,0,.53.26.62.62,0,0,0,.54-.26,1.19,1.19,0,0,0,.18-.68,1,1,0,0,0-.29-.84A.64.64,0,0,0,389.22,89.49Z" transform="translate(-9.5 -9.5)"/><path class="cls-2" d="M124,20V120H420V20Zm36.41,61c-3.76,0-5.32-1.63-6.2-2.7A3.31,3.31,0,0,1,151,80.83a3.22,3.22,0,0,1-3.23-3.23V54.19a3.53,3.53,0,1,1,7.06,0v8.59a6.39,6.39,0,0,1,6-3.38c5.85,0,8.54,4.71,8.54,10.37C169.33,76.76,165.42,81,160.41,81Zm19.91-3.68a3.54,3.54,0,0,1-7.07,0V63.05a3.54,3.54,0,1,1,7.07,0Zm-2.66-20.41h-1.75a3,3,0,0,1,0-5.92h1.75a3,3,0,1,1,0,5.92Zm28.19,21.2c0,7.18-3.27,11.25-11.59,11.25a11.33,11.33,0,0,1-6.76-1.86A3.1,3.1,0,0,1,186.32,85a2.94,2.94,0,0,1,5.21-1.9,3.61,3.61,0,0,0,3.11,1.37c2.74,0,4.22-1.52,4.22-4.52V77.68a6.89,6.89,0,0,1-6,2.73c-6.19,0-8.63-5-8.63-10.45,0-6.49,3.8-10.56,9.39-10.56a6.46,6.46,0,0,1,5.74,2.74,3.29,3.29,0,0,1,3.22-2.63,3.24,3.24,0,0,1,3.27,3.23Zm21.51-.79a3.53,3.53,0,0,1-7.06,0V63.05a3.53,3.53,0,1,1,7.06,0ZM224.7,56.89H223A3,3,0,1,1,223,51h1.74a3,3,0,1,1,0,5.92Zm28.2,20c0,2.32-1.26,4-3.27,4a3.29,3.29,0,0,1-3.23-2.69,7.73,7.73,0,0,1-6.27,2.73c-5.59,0-8.85-4.14-8.85-10.48s3.34-11.06,9.23-11.06a6.42,6.42,0,0,1,5.32,2.24V54.19a3.54,3.54,0,0,1,7.07,0Zm21.77-4.83H263.46a4.16,4.16,0,0,0,4.26,4.07c2.86,0,3.17-2.28,5.51-2.28a2.88,2.88,0,0,1,2.85,2.92c0,3.1-4.07,4.33-7.79,4.33-7.18,0-11.59-4.21-11.59-10.86,0-6.31,4.1-10.94,10.71-10.94s10.38,5,10.38,9.42C277.79,70.84,277.1,72.05,274.67,72.05Zm25.73,5.4a3.29,3.29,0,0,1-6.54.57c-1.63,2.24-3.76,3-6.5,3-3.83,0-7.06-2.24-7.06-6.31,0-6,6-6.72,10.71-6.72h2.59c0-2.21-.23-3.69-2.89-3.69-3.23,0-3.71,2.39-6,2.39a2.81,2.81,0,0,1-3-2.77c0-3.63,5.52-4.63,9.15-4.63,6,0,9.62,2.28,9.62,8.62ZM328,92l-.29-.89h-1.59l-.29.89h-.95l1.55-4.32h1L329,92ZM333,92h-.86v-2a.81.81,0,0,0-.07-.38.45.45,0,0,0-.46-.25.58.58,0,0,0-.58.36,1.17,1.17,0,0,0-.08.49V92h-.84V88.84h.81v.46a1.61,1.61,0,0,1,.3-.35,1.06,1.06,0,0,1,.65-.19,1.2,1.2,0,0,1,.81.26,1.05,1.05,0,0,1,.32.86Zm-5.54-11c-3.77,0-5.32-1.63-6.2-2.7A3.31,3.31,0,0,1,318,80.83a3.23,3.23,0,0,1-3.23-3.23V54.19a3.54,3.54,0,0,1,7.07,0v8.59a6.39,6.39,0,0,1,6-3.38c5.86,0,8.55,4.71,8.55,10.37C336.34,76.76,332.43,81,327.42,81ZM340,91.64a1.86,1.86,0,0,1-1.41.51,1.88,1.88,0,0,1-1.42-.51,2.31,2.31,0,0,1-.66-1.78,2.28,2.28,0,0,1,.66-1.78,1.88,1.88,0,0,1,1.42-.5,1.86,1.86,0,0,1,1.41.5,2.28,2.28,0,0,1,.65,1.78A2.3,2.3,0,0,1,340,91.64Zm4.57,0a1.22,1.22,0,0,1-1,.45,1.08,1.08,0,0,1-.64-.19,1.43,1.43,0,0,1-.27-.31v1.66h-.83V88.83h.8v.47a1.52,1.52,0,0,1,.29-.32,1,1,0,0,1,.67-.22,1.25,1.25,0,0,1,.95.42,1.69,1.69,0,0,1,.39,1.21A1.87,1.87,0,0,1,344.56,91.67Zm2.49-.33a.85.85,0,0,0,.46.12.72.72,0,0,0,.47-.15.67.67,0,0,0,.17-.22H349a1,1,0,0,1-.31.58,1.53,1.53,0,0,1-1.2.46,1.74,1.74,0,0,1-1.12-.39,1.53,1.53,0,0,1-.49-1.28,1.75,1.75,0,0,1,.44-1.27,1.54,1.54,0,0,1,1.14-.44,1.79,1.79,0,0,1,.75.15,1.31,1.31,0,0,1,.55.47A1.61,1.61,0,0,1,349,90a5.06,5.06,0,0,1,0,.63h-2.33A.77.77,0,0,0,347.05,91.34Zm-7.93-21.11c0-6.31,3.95-10.94,10.94-10.94S360.93,64,360.93,70.15c0,6.31-4,10.94-11,10.94S339.12,76.42,339.12,70.23ZM353,92h-.86v-2a.81.81,0,0,0-.07-.38.45.45,0,0,0-.46-.25.58.58,0,0,0-.58.36,1.36,1.36,0,0,0-.08.49V92h-.84V88.84h.81v.46a1.39,1.39,0,0,1,.31-.35,1,1,0,0,1,.65-.19,1.19,1.19,0,0,1,.8.26,1.05,1.05,0,0,1,.32.86Zm5.34,0h-.86l-.52-2.53-.15-.83-.16.83L356.09,92h-.84L354,87.71h1l.57,2.47.12.69.13-.67.48-2.49h1l.51,2.47.13.69.13-.66.58-2.5h.92Zm4.86,0h-.91a1.8,1.8,0,0,1-.05-.19,1,1,0,0,1,0-.19,1.76,1.76,0,0,1-.4.32,1.27,1.27,0,0,1-.62.16,1.09,1.09,0,0,1-.72-.25.88.88,0,0,1-.28-.7.91.91,0,0,1,.46-.86,2.09,2.09,0,0,1,.73-.2l.29,0A1.19,1.19,0,0,0,362,90a.25.25,0,0,0,.18-.24.28.28,0,0,0-.13-.27.92.92,0,0,0-.41-.07.54.54,0,0,0-.42.14.63.63,0,0,0-.12.3h-.81a1.24,1.24,0,0,1,.24-.69,1.37,1.37,0,0,1,1.14-.42,2.12,2.12,0,0,1,.93.2.8.8,0,0,1,.41.79v1.46c0,.11,0,.23,0,.37a.52.52,0,0,0,.05.23.27.27,0,0,0,.12.09Zm2.62-2.57h-.52v1.68c0,.14,0,.22.05.25a.54.54,0,0,0,.3,0h.17v.63h-.4a1.1,1.1,0,0,1-.81-.2.65.65,0,0,1-.14-.45v-2H364v-.6h.44V88h.83v.89h.52Zm2.05,1.88a.88.88,0,0,0,.46.12.72.72,0,0,0,.47-.15.67.67,0,0,0,.17-.22h.85a1,1,0,0,1-.31.58,1.53,1.53,0,0,1-1.2.46,1.74,1.74,0,0,1-1.12-.39,1.53,1.53,0,0,1-.49-1.28,1.75,1.75,0,0,1,.44-1.27,1.54,1.54,0,0,1,1.14-.44,1.79,1.79,0,0,1,.75.15,1.31,1.31,0,0,1,.55.47,1.61,1.61,0,0,1,.26.66,5.06,5.06,0,0,1,0,.63H367.5A.77.77,0,0,0,367.83,91.34Zm4.86-1.72h-.24a.68.68,0,0,0-.67.33,1.19,1.19,0,0,0-.1.57V92h-.84v-3.2h.8v.56A1.83,1.83,0,0,1,372,89a.93.93,0,0,1,.61-.19h.11Zm6.33.54a1.68,1.68,0,0,1-1.09.31H377V92h-.89V87.71H378a1.49,1.49,0,0,1,1,.33,1.29,1.29,0,0,1,.39,1A1.35,1.35,0,0,1,379,90.16Zm3.48-.54h-.24a.7.7,0,0,0-.68.33,1.32,1.32,0,0,0-.1.57V92h-.84v-3.2h.8v.56a1.81,1.81,0,0,1,.34-.44.91.91,0,0,1,.61-.19h.11Zm-2.08-8.79A3.27,3.27,0,0,1,377.16,78c-1.64,2.24-3.76,3-6.5,3-3.84,0-7.07-2.24-7.07-6.31,0-6,6-6.72,10.72-6.72h2.58c0-2.21-.23-3.69-2.89-3.69-3.23,0-3.7,2.39-6,2.39a2.81,2.81,0,0,1-3-2.77c0-3.63,5.53-4.63,9.16-4.63,6,0,9.61,2.28,9.61,8.62v9.54A3.31,3.31,0,0,1,380.42,80.83Zm5.83,10.81a1.79,1.79,0,0,1-2.46,0,1.93,1.93,0,0,1-.4-1.21,1.88,1.88,0,0,1,.4-1.19,1.74,1.74,0,0,1,2.46,0,1.82,1.82,0,0,1,.4,1.19A1.88,1.88,0,0,1,386.25,91.64Zm4.51.39H390v-.45a1.27,1.27,0,0,1-.41.42,1.2,1.2,0,0,1-.57.13,1.16,1.16,0,0,1-.94-.46,1.71,1.71,0,0,1-.38-1.16,2,2,0,0,1,.37-1.28,1.21,1.21,0,0,1,1-.47,1.07,1.07,0,0,1,.51.12,1,1,0,0,1,.37.36V87.71h.85Zm-1.1-18.46,0-9.08h-1.07a2.34,2.34,0,0,1,0-4.67h1.3l.15-2.81a3.23,3.23,0,0,1,6.46.19v2.62h2.24a2.34,2.34,0,0,1,0,4.67h-2.09V73c0,2.17,1.2,2.61,2.05,2.85,1.6.46,2.74,1,2.74,2.28,0,2.81-2.76,2.89-5.17,2.89C391.33,81,389.62,78.47,389.66,73.57ZM395,92h-.81v-.45s0,0-.06.08a.69.69,0,0,1-.11.13,1.08,1.08,0,0,1-.38.24,1.11,1.11,0,0,1-.43.07,1,1,0,0,1-.95-.51,2,2,0,0,1-.14-.83V88.83H393v1.93a1.07,1.07,0,0,0,.06.41.46.46,0,0,0,.45.24.57.57,0,0,0,.58-.34,1.19,1.19,0,0,0,.08-.5V88.83H395Zm2.19-1a.54.54,0,0,0,.56.39.52.52,0,0,0,.42-.15.88.88,0,0,0,.15-.41h.85a1.38,1.38,0,0,1-.28.72,1.34,1.34,0,0,1-1.16.54,1.39,1.39,0,0,1-1.14-.45,2.2,2.2,0,0,1,0-2.47,1.42,1.42,0,0,1,1.11-.45,1.65,1.65,0,0,1,1,.27,1.24,1.24,0,0,1,.46,1h-.86a.6.6,0,0,0-.12-.32.5.5,0,0,0-.44-.2.57.57,0,0,0-.57.42,1.63,1.63,0,0,0-.09.59A1.51,1.51,0,0,0,397.16,91Zm4.62-1.58h-.52v1.68a.4.4,0,0,0,.05.25.61.61,0,0,0,.31,0h.16v.63h-.39a1.07,1.07,0,0,1-.81-.2.61.61,0,0,1-.14-.45v-2H400v-.6h.45V88h.82v.89h.52Z" transform="translate(-9.5 -9.5)"/><path class="cls-2" d="M385,89.44a.65.65,0,0,0-.56.26,1.11,1.11,0,0,0-.2.73,1.14,1.14,0,0,0,.2.74.73.73,0,0,0,1.12,0,1.21,1.21,0,0,0,.2-.74,1.18,1.18,0,0,0-.2-.73A.65.65,0,0,0,385,89.44Z" transform="translate(-9.5 -9.5)"/><path class="cls-2" d="M370.51,74.29A2.21,2.21,0,0,0,373,76.5c2.58,0,3.95-2,3.95-4.41v-.34h-2.24C372.94,71.75,370.51,72.05,370.51,74.29Z" transform="translate(-9.5 -9.5)"/></svg>