<svg id="Layer_1" data-name="Layer 1" xmlns="http://www.w3.org/2000/svg" viewBox="0 0 421 121"><defs><style>.cls-1,.cls-3,.cls-4{fill:#fff;}.cls-1{stroke:#333;stroke-miterlimit:10;stroke-width:6px;}.cls-2{fill:#333;}.cls-4{font-size:6px;font-family:Helvetica-Light, Helvetica;font-weight:300;letter-spacing:0.1em;}</style></defs><rect class="cls-1" x="3" y="3" width="415" height="115"/><rect class="cls-2" x="10.5" y="10.5" width="100" height="100"/><path class="cls-3" d="M104.56,110.13a1.56,1.56,0,0,0-2.18,0,3,3,0,0,1-3.89,0,6,6,0,0,0-5.37-1.49,6.65,6.65,0,0,0-3,1.49,2,2,0,0,1-1,.6,2.46,2.46,0,0,1-1.48.07l-.7-.22a27.47,27.47,0,0,0,9.5-19.94L71.57,82v20.23a1.56,1.56,0,0,1-3.11,0V82l-24.9,8.62a28,28,0,0,0,9.41,20h0a7.21,7.21,0,0,1-.7.23,3.38,3.38,0,0,1-1.48-.08,4.78,4.78,0,0,1-1-.59,4.85,4.85,0,0,0-3-1.49h0a5.86,5.86,0,0,0-1.17-.15,6,6,0,0,0-4.12,1.64,3,3,0,0,1-3.89,0,1.55,1.55,0,0,0-2.18,0,1.38,1.38,0,0,0,0,2.08,6,6,0,0,0,8.24,0,3,3,0,0,1,3.89,0,6,6,0,0,0,5.06,1.56H53a5.65,5.65,0,0,0,2.73-1.41l.07-.08a3,3,0,0,1,3.89,0l.08.08a6,6,0,0,0,8.09,0l.08-.08a2.82,2.82,0,0,1,3.89,0l.08.08a6,6,0,0,0,8.09,0l.08-.08a2.82,2.82,0,0,1,3.89,0l.08.08a5.62,5.62,0,0,0,2.72,1.41h.47a3.36,3.36,0,0,0,.85.08,6,6,0,0,0,4.13-1.64,2.82,2.82,0,0,1,3.89,0,6,6,0,0,0,8.25,0A1.35,1.35,0,0,0,104.56,110.13Z" transform="translate(-9.5 -9.5)"/><path class="cls-3" d="M69.93,39.14h0c-7.05,0-12.77,5.46-12.77,12.21A11.91,11.91,0,0,0,60.9,60a12,12,0,0,1,3.43,6h11.2A12,12,0,0,1,79,60a11.91,11.91,0,0,0,3.74-8.63C82.7,44.6,77,39.14,69.93,39.14ZM66.32,54.8l-2.71,2.59a8.29,8.29,0,0,1,0-12.09l2.71,2.59A4.73,4.73,0,0,0,66.32,54.8Z" transform="translate(-9.5 -9.5)"/><path class="cls-3" d="M86.35,68H53.67a1.53,1.53,0,0,0-1.55,1.49v15l13.81-4.8a4.93,4.93,0,0,1-1.29-3.31V73H75.22v3.49A4.93,4.93,0,0,1,74,79.71l13.94,4.84v-15A1.53,1.53,0,0,0,86.35,68Z" transform="translate(-9.5 -9.5)"/><path class="cls-3" d="M72.73,74.78h-5.5v2.15a2.77,2.77,0,1,0,5.5,0V74.78Z" transform="translate(-9.5 -9.5)"/><rect class="cls-3" x="63.43" y="29.89" width="13.15" height="1.38" rx="0.67" transform="translate(91.07 -48.93) rotate(90)"/><path class="cls-3" d="M58.67,40.13l-8.75-8.37a.64.64,0,0,1,0-.93h0a.72.72,0,0,1,1,0l8.75,8.37a.64.64,0,0,1,0,.93h0A.7.7,0,0,1,58.67,40.13Z" transform="translate(-9.5 -9.5)"/><path class="cls-3" d="M79.71,39.2l8.76-8.37a.72.72,0,0,1,1,0h0a.64.64,0,0,1,0,.93l-8.75,8.37a.71.71,0,0,1-1,0h0A.65.65,0,0,1,79.71,39.2Z" transform="translate(-9.5 -9.5)"/><rect class="cls-2" x="114.5" y="10.5" width="296" height="100"/><path class="cls-3" d="M147.72,54.19a3.53,3.53,0,1,1,7.06,0v8.59a6.39,6.39,0,0,1,6-3.38c5.85,0,8.54,4.71,8.54,10.37,0,7-3.91,11.21-8.92,11.21-3.76,0-5.32-1.63-6.2-2.7A3.31,3.31,0,0,1,151,80.83a3.22,3.22,0,0,1-3.23-3.23Zm10.67,22c2.05,0,3.84-1.78,3.84-6.08s-1.82-5.81-3.76-5.81c-2.24,0-3.88,1.75-3.88,5.81C154.59,74.67,156.34,76.23,158.39,76.23Z" transform="translate(-9.5 -9.5)"/><path class="cls-3" d="M175.91,51h1.75a3,3,0,1,1,0,5.92h-1.75a3,3,0,0,1,0-5.92Zm-2.66,12.08a3.54,3.54,0,1,1,7.07,0V77.3a3.54,3.54,0,0,1-7.07,0Z" transform="translate(-9.5 -9.5)"/><path class="cls-3" d="M193.62,59.4a6.46,6.46,0,0,1,5.74,2.74,3.29,3.29,0,0,1,3.22-2.63,3.24,3.24,0,0,1,3.27,3.23V78.09c0,7.18-3.27,11.25-11.59,11.25a11.33,11.33,0,0,1-6.76-1.86A3.1,3.1,0,0,1,186.32,85a2.94,2.94,0,0,1,5.21-1.9,3.61,3.61,0,0,0,3.11,1.37c2.74,0,4.22-1.52,4.22-4.52V77.68a6.89,6.89,0,0,1-6,2.73c-6.19,0-8.63-5-8.63-10.45C184.23,63.47,188,59.4,193.62,59.4Zm1.56,16.38c2.54,0,3.8-2.4,3.8-5.86s-1.26-5.85-3.8-5.85-3.84,2.43-3.84,5.85S192.63,75.78,195.18,75.78Z" transform="translate(-9.5 -9.5)"/><path class="cls-3" d="M223,51h1.74a3,3,0,1,1,0,5.92H223A3,3,0,1,1,223,51ZM220.3,63.05a3.53,3.53,0,1,1,7.06,0V77.3a3.53,3.53,0,0,1-7.06,0Z" transform="translate(-9.5 -9.5)"/><path class="cls-3" d="M240.51,59.4a6.42,6.42,0,0,1,5.32,2.24V54.19a3.54,3.54,0,0,1,7.07,0V76.88c0,2.32-1.26,4-3.27,4a3.29,3.29,0,0,1-3.23-2.69,7.73,7.73,0,0,1-6.27,2.73c-5.59,0-8.85-4.14-8.85-10.48S234.62,59.4,240.51,59.4Zm1.71,16.83c2.62,0,3.8-2.43,3.8-6s-1.14-5.93-3.76-5.93-3.88,2.43-3.88,6S239.6,76.23,242.22,76.23Z" transform="translate(-9.5 -9.5)"/><path class="cls-3" d="M267.41,59.29c6.73,0,10.38,5,10.38,9.42,0,2.13-.69,3.34-3.12,3.34H263.46a4.16,4.16,0,0,0,4.26,4.07c2.86,0,3.17-2.28,5.51-2.28a2.88,2.88,0,0,1,2.85,2.92c0,3.1-4.07,4.33-7.79,4.33-7.18,0-11.59-4.21-11.59-10.86C256.7,63.92,260.8,59.29,267.41,59.29ZM271,67.91c-.12-2.43-1.56-3.95-3.69-3.95s-3.53,1.52-3.8,3.95Z" transform="translate(-9.5 -9.5)"/><path class="cls-3" d="M291,68h2.59c0-2.21-.23-3.69-2.89-3.69-3.23,0-3.71,2.39-6,2.39a2.81,2.81,0,0,1-3-2.77c0-3.63,5.52-4.63,9.15-4.63,6,0,9.62,2.28,9.62,8.62v9.54a3.29,3.29,0,0,1-6.54.57c-1.63,2.24-3.76,3-6.5,3-3.83,0-7.06-2.24-7.06-6.31C280.3,68.71,286.3,68,291,68Zm-1.33,8.51c2.59,0,3.95-2,3.95-4.41v-.34h-2.24c-1.75,0-4.18.3-4.18,2.54A2.21,2.21,0,0,0,289.68,76.5Z" transform="translate(-9.5 -9.5)"/><path class="cls-3" d="M314.72,54.19a3.54,3.54,0,0,1,7.07,0v8.59a6.39,6.39,0,0,1,6-3.38c5.86,0,8.55,4.71,8.55,10.37,0,7-3.91,11.21-8.92,11.21-3.77,0-5.32-1.63-6.2-2.7A3.31,3.31,0,0,1,318,80.83a3.23,3.23,0,0,1-3.23-3.23Zm10.68,22c2.05,0,3.84-1.78,3.84-6.08s-1.82-5.81-3.76-5.81c-2.24,0-3.88,1.75-3.88,5.81C321.6,74.67,323.35,76.23,325.4,76.23Z" transform="translate(-9.5 -9.5)"/><path class="cls-3" d="M350.06,59.29c7.07,0,10.87,4.71,10.87,10.86,0,6.31-4,10.94-11,10.94s-10.79-4.67-10.79-10.86S343.07,59.29,350.06,59.29ZM350,76c2.62,0,3.79-2.32,3.79-5.85s-1.17-5.85-3.83-5.85-3.8,2.32-3.8,5.81S347.4,76,350,76Z" transform="translate(-9.5 -9.5)"/><path class="cls-3" d="M374.31,68h2.58c0-2.21-.23-3.69-2.89-3.69-3.23,0-3.7,2.39-6,2.39a2.81,2.81,0,0,1-3-2.77c0-3.63,5.53-4.63,9.16-4.63,6,0,9.61,2.28,9.61,8.62v9.54a3.31,3.31,0,0,1-3.27,3.38A3.27,3.27,0,0,1,377.16,78c-1.64,2.24-3.76,3-6.5,3-3.84,0-7.07-2.24-7.07-6.31C363.59,68.71,369.6,68,374.31,68ZM373,76.5c2.58,0,3.95-2,3.95-4.41v-.34h-2.24c-1.75,0-4.18.3-4.18,2.54A2.21,2.21,0,0,0,373,76.5Z" transform="translate(-9.5 -9.5)"/><path class="cls-3" d="M388.63,59.82h1.3l.15-2.81a3.23,3.23,0,0,1,6.46.19v2.62h2.24a2.34,2.34,0,0,1,0,4.67h-2.09V73c0,2.17,1.2,2.61,2.05,2.85,1.6.46,2.74,1,2.74,2.28,0,2.81-2.76,2.89-5.17,2.89-5,0-6.69-2.51-6.65-7.41l0-9.08h-1.07a2.34,2.34,0,0,1,0-4.67Z" transform="translate(-9.5 -9.5)"/><text class="cls-4" transform="translate(346.24 80.53)">by OpenWater</text></svg>