<svg id="Layer_1" data-name="Layer 1" xmlns="http://www.w3.org/2000/svg" viewBox="0 0 137.89 96.41"><defs><style>.cls-1,.cls-2{fill:#fff;}.cls-2{font-size:28px;font-family:Jellee-Roman, Jellee;}</style></defs><path class="cls-1" d="M253,111.13a1.46,1.46,0,0,0-2.09,0,2.73,2.73,0,0,1-3.71,0,5.6,5.6,0,0,0-5.14-1.49,6.18,6.18,0,0,0-2.82,1.49,2,2,0,0,1-1,.6,2.25,2.25,0,0,1-1.41.07l-.67-.22a28,28,0,0,0,9.07-19.94L221.5,83v20.23a1.49,1.49,0,0,1-3,0V83l-23.8,8.62a28.54,28.54,0,0,0,9,20h0a6.4,6.4,0,0,1-.67.23,3.08,3.08,0,0,1-1.41-.08,4.48,4.48,0,0,1-1-.59,4.57,4.57,0,0,0-2.82-1.49h0a5.38,5.38,0,0,0-1.12-.15,5.57,5.57,0,0,0-3.94,1.64,2.76,2.76,0,0,1-3.72,0,1.47,1.47,0,0,0-2.08,2.08,5.55,5.55,0,0,0,7.88,0,2.74,2.74,0,0,1,3.72,0,5.55,5.55,0,0,0,4.84,1.56h.29a5.32,5.32,0,0,0,2.61-1.41l.07-.08a2.76,2.76,0,0,1,3.72,0l.07.08a5.58,5.58,0,0,0,7.74,0l.07-.08a2.61,2.61,0,0,1,3.72,0l.08.08a5.57,5.57,0,0,0,7.73,0l.08-.08a2.61,2.61,0,0,1,3.72,0l.07.08a5.29,5.29,0,0,0,2.6,1.41h.45a3.14,3.14,0,0,0,.82.08,5.57,5.57,0,0,0,3.94-1.64,2.61,2.61,0,0,1,3.72,0,5.55,5.55,0,0,0,7.88,0A1.39,1.39,0,0,0,253,111.13Z" transform="translate(-186.54 -25)"/><path class="cls-1" d="M219.93,40.14h0A12.2,12.2,0,0,0,211.3,61a12.2,12.2,0,0,1,3.28,6h10.71a12.12,12.12,0,0,1,3.28-6,12.21,12.21,0,0,0-8.64-20.84ZM216.48,55.8l-2.59,2.59a8.55,8.55,0,0,1,0-12.09l2.59,2.59A4.88,4.88,0,0,0,216.48,55.8Z" transform="translate(-186.54 -25)"/><path class="cls-1" d="M235.63,69H204.39a1.49,1.49,0,0,0-1.48,1.49v15l13.2-4.8a5,5,0,0,1-1.23-3.31V74H225v3.49a5,5,0,0,1-1.2,3.27l13.33,4.84v-15A1.49,1.49,0,0,0,235.63,69Z" transform="translate(-186.54 -25)"/><path class="cls-1" d="M222.61,75.78h-5.26v2.15a2.67,2.67,0,1,0,5.26,0V75.78Z" transform="translate(-186.54 -25)"/><rect class="cls-1" x="213.43" y="30.92" width="13.15" height="1.31" rx="0.66" transform="translate(65.03 -213.43) rotate(90)"/><rect class="cls-1" x="198.88" y="35.83" width="13.15" height="1.31" rx="0.66" transform="translate(-100.57 -159.59) rotate(45)"/><rect class="cls-1" x="227.36" y="35.83" width="13.15" height="1.31" rx="0.66" transform="translate(238.61 -128.14) rotate(135)"/><text class="cls-2" transform="translate(71.53 37.91)">big<tspan x="0" y="26">idea</tspan><tspan x="0" y="52">boat</tspan></text></svg>